<?xml version="1.0" standalone="no"?>
<!DOCTYPE svg PUBLIC "-//W3C//DTD SVG 20010904//EN"
 "http://www.w3.org/TR/2001/REC-SVG-20010904/DTD/svg10.dtd">
<svg version="1.0" xmlns="http://www.w3.org/2000/svg"
 width="2100.000000pt" height="1500.000000pt" viewBox="0 0 2100.000000 1500.000000"
 preserveAspectRatio="xMidYMid meet">

<g transform="translate(0.000000,1500.000000) scale(0.100000,-0.100000)"
fill="#000000" stroke="none">
<path d="M0 7500 l0 -7500 10500 0 10500 0 0 7500 0 7500 -10500 0 -10500 0 0
-7500z m10648 1593 c5 -10 12 -39 15 -65 4 -30 34 -101 85 -200 88 -171 108
-244 99 -356 -2 -37 -6 -74 -8 -82 -4 -14 16 -21 153 -49 127 -27 215 -126
248 -280 10 -49 26 -104 35 -122 31 -58 -2 -103 -47 -62 -22 20 -24 6 -3 -24
18 -25 18 -25 -79 -42 -82 -15 -115 -14 -177 6 -69 22 -139 90 -159 154 -16
48 -37 62 -32 20 5 -41 39 -96 82 -135 47 -42 69 -52 159 -76 36 -9 69 -24 75
-33 19 -30 -18 -171 -73 -283 -38 -75 -69 -121 -121 -177 l-70 -75 33 -15 c17
-8 58 -27 89 -42 102 -47 123 -102 64 -161 -52 -52 -84 -44 -180 45 -59 55
-109 81 -157 81 -9 0 -41 -9 -73 -20 l-56 -19 -51 25 c-34 18 -81 29 -150 37
l-100 12 54 47 c75 65 107 131 107 220 0 129 -57 226 -165 279 -119 58 -232
50 -312 -24 -54 -50 -43 -60 18 -17 128 89 300 51 384 -84 41 -67 47 -168 15
-244 -36 -84 -148 -171 -222 -172 -15 0 -30 -5 -34 -11 -15 -25 21 -34 164
-40 166 -8 213 -19 253 -59 55 -55 48 -111 -20 -157 -53 -36 -87 -30 -151 23
-88 74 -140 94 -241 94 -146 0 -264 57 -331 160 -18 27 -46 55 -62 62 -16 6
-62 33 -101 59 -112 73 -149 136 -121 203 28 66 121 88 170 40 14 -15 26 -32
27 -38 0 -6 10 23 22 64 36 118 82 196 172 286 64 65 98 90 169 125 78 38 99
44 167 48 54 2 104 -3 167 -18 167 -39 253 -19 302 69 22 39 25 60 28 163 l4
117 -42 70 c-54 90 -85 166 -104 262 -29 143 -17 289 34 388 22 44 35 49 48
23z m168 -79 c4 -63 33 -133 100 -242 64 -102 86 -170 92 -280 3 -56 0 -98 -6
-104 -6 -6 -32 -7 -66 -3 l-57 7 6 77 c5 53 2 98 -9 149 -15 72 -76 209 -116
259 -11 14 -20 40 -20 57 1 46 53 156 68 141 3 -3 7 -30 8 -61z m2259 -2711
c39 -92 69 -176 67 -186 -1 -10 12 -52 29 -92 27 -67 33 -74 61 -77 26 -3 33
-10 54 -62 29 -73 31 -96 5 -96 -18 0 -16 -7 16 -65 31 -55 42 -66 77 -78 29
-10 41 -19 41 -33 0 -18 -10 -19 -177 -22 l-178 -2 0 25 c0 19 5 25 21 25 34
0 59 19 59 45 0 13 5 25 10 27 19 6 -20 98 -45 108 -12 5 -25 16 -28 24 -5 14
-29 16 -155 16 l-149 0 -38 -90 -38 -90 -48 0 c-60 0 -61 6 -16 98 19 37 62
136 97 220 35 83 68 152 74 152 6 0 42 72 80 160 91 215 89 215 181 -7z m-774
121 c85 -19 176 -71 184 -106 3 -13 4 -135 3 -273 l-3 -249 -48 -37 c-86 -64
-139 -74 -402 -74 -197 0 -230 2 -230 15 0 8 9 16 20 18 71 11 85 33 85 132 0
27 4 50 10 52 15 5 15 455 0 473 -7 9 -30 18 -51 21 -36 6 -49 21 -32 37 3 4
93 7 198 7 142 0 212 -4 266 -16z m-2831 -44 c0 -24 5 -40 15 -44 12 -4 15
-29 15 -136 l0 -131 35 26 c39 31 102 43 134 26 19 -10 21 -20 21 -91 l0 -80
90 0 c89 0 90 0 90 -25 0 -25 -1 -25 -90 -25 -71 0 -90 -3 -90 -14 0 -8 10
-16 23 -18 18 -2 22 -10 25 -43 4 -68 10 -82 38 -89 17 -5 24 -12 22 -24 -3
-15 -17 -17 -108 -17 -88 0 -105 3 -108 16 -2 11 6 18 26 22 34 7 39 24 34
109 l-4 57 -41 3 c-34 2 -42 7 -42 23 0 17 8 20 46 23 l46 3 -7 41 c-12 63
-43 74 -101 35 l-34 -23 -3 -110 c-3 -124 6 -161 40 -166 13 -2 23 -10 23 -18
0 -12 -19 -15 -109 -15 -80 0 -110 3 -114 13 -2 7 9 17 26 23 19 7 32 19 34
34 4 21 1 24 -26 27 -35 3 -43 31 -11 36 11 2 24 7 28 12 9 8 11 485 2 500 -3
5 -17 10 -31 10 -43 0 -28 30 28 54 29 13 59 21 65 19 7 -3 13 -22 13 -43z
m-1922 -27 l3 -63 62 0 c67 0 95 -14 76 -37 -7 -7 -21 -13 -33 -13 -50 -1 -51
-5 -54 -230 -3 -173 -6 -212 -18 -217 -15 -6 -19 -65 -8 -121 6 -27 12 -32 48
-39 26 -6 41 -14 41 -23 0 -12 -15 -15 -70 -15 l-70 0 -3 63 -3 62 -80 0 c-70
0 -80 2 -77 17 2 9 16 20 31 24 50 14 57 26 57 105 0 55 4 75 15 82 13 7 15
31 13 145 l-3 136 -120 -249 c-91 -189 -124 -250 -138 -250 -12 0 -26 17 -42
55 -15 33 -31 55 -40 55 -10 0 -33 37 -63 103 -26 56 -61 131 -79 167 l-32 65
0 -188 c-1 -142 2 -189 12 -191 6 -3 25 -7 40 -11 40 -8 32 -39 -11 -43 -44
-4 -36 -24 14 -38 22 -6 39 -17 39 -25 0 -11 -24 -14 -125 -14 -103 0 -125 3
-125 15 0 8 15 18 38 23 20 5 42 17 47 28 6 11 9 115 8 266 l-3 247 -23 6
c-12 3 -28 16 -35 30 -9 17 -23 27 -47 30 -23 3 -36 11 -38 23 -3 15 7 17 102
17 l106 0 17 -35 c13 -28 22 -35 45 -35 26 0 32 -7 68 -85 22 -48 45 -85 53
-85 8 0 33 -40 58 -95 23 -52 45 -95 48 -95 3 0 58 113 121 251 115 249 115
250 145 247 29 -3 30 -4 33 -65z m6422 41 c56 -26 140 -98 140 -121 0 -7 17
-13 43 -15 l42 -3 3 -53 c4 -64 -8 -82 -54 -82 -29 0 -34 -3 -34 -24 0 -21 6
-25 33 -28 29 -3 32 -7 35 -37 2 -19 11 -40 19 -47 34 -24 -28 -155 -105 -222
-15 -13 -49 -35 -77 -49 -43 -22 -63 -26 -145 -26 -82 -1 -103 3 -150 25 -30
14 -72 42 -92 63 -36 35 -98 144 -98 172 0 7 -9 13 -20 13 -17 0 -20 7 -22 58
-3 101 3 136 32 197 29 62 64 104 126 151 76 59 230 72 324 28z m-5470 -234
c0 -10 9 -20 20 -23 14 -4 20 -14 20 -32 l0 -27 40 36 c23 21 50 36 65 36 62
0 109 -55 85 -100 -10 -19 -18 -21 -63 -18 -29 2 -58 6 -66 9 -8 2 -24 -11
-38 -30 -26 -39 -29 -51 -9 -51 20 0 26 -23 26 -102 0 -61 -2 -70 -20 -75 -16
-4 -20 -14 -20 -48 0 -46 10 -60 53 -70 17 -5 27 -14 27 -26 0 -17 -8 -19 -75
-19 -73 0 -75 1 -75 25 0 23 -4 24 -62 27 -48 2 -63 7 -63 18 0 8 11 16 25 18
54 8 60 23 60 169 0 131 0 133 -22 135 -13 0 -27 2 -33 3 -5 2 -16 3 -22 4
-28 2 -11 29 29 44 46 18 43 33 -7 39 -49 5 -35 29 34 59 68 28 91 28 91 -1z
m470 5 c0 -27 15 -34 24 -10 4 12 23 15 85 15 44 0 87 -3 96 -7 10 -3 28 -29
41 -57 50 -108 19 -256 -66 -314 -31 -21 -44 -23 -108 -19 l-73 4 3 -31 c3
-31 3 -31 73 -36 53 -4 70 -9 70 -20 0 -12 -16 -16 -68 -18 -48 -2 -67 -7 -64
-15 2 -7 16 -13 30 -15 19 -2 27 -9 27 -23 0 -16 -7 -19 -44 -19 -39 0 -45 -3
-50 -25 -6 -25 -10 -26 -64 -23 -43 2 -58 7 -60 19 -2 11 8 20 28 27 l30 11
-2 228 c-3 194 -5 228 -18 229 -8 1 -21 2 -27 3 -30 3 -9 30 37 49 35 15 50
27 50 40 0 24 8 32 32 32 13 0 18 -7 18 -25z m-902 -5 c23 -10 55 -33 70 -49
21 -23 37 -30 72 -33 37 -2 45 -6 45 -23 0 -15 -8 -21 -31 -23 l-30 -3 10 -44
c6 -25 16 -45 23 -45 36 0 16 -109 -35 -191 -40 -63 -103 -93 -192 -93 -75 0
-148 29 -175 70 -9 14 -27 29 -41 34 -24 9 -24 10 -24 153 l0 143 35 41 c68
80 179 106 273 63z m2215 6 c50 -18 77 -43 77 -72 0 -13 5 -26 10 -29 11 -7
14 -94 4 -119 -9 -23 -45 -20 -51 4 -5 19 -14 20 -119 20 -123 0 -121 1 -105
-57 6 -20 5 -35 -1 -41 -26 -26 53 -93 111 -94 38 -1 87 27 108 62 18 32 53
41 53 14 0 -34 -42 -111 -76 -138 -28 -22 -49 -30 -98 -33 -82 -7 -142 18
-184 77 -38 51 -52 118 -28 135 10 8 16 27 16 50 0 97 65 194 148 219 59 18
87 19 135 2z m649 12 c1 -2 4 -91 7 -198 l6 -195 29 0 c30 0 41 -12 28 -31 -4
-5 -28 -18 -54 -28 -35 -13 -48 -23 -48 -37 0 -34 -19 -59 -45 -59 -22 0 -25
4 -25 37 l0 37 -27 -27 c-62 -58 -203 -49 -203 14 0 13 -9 19 -37 21 -33 3
-38 6 -38 28 0 19 6 26 23 28 23 3 23 6 16 70 -4 40 -12 70 -20 75 -10 5 -14
28 -14 71 0 68 -7 79 -52 90 -16 3 -28 10 -28 15 0 23 32 32 102 29 l73 -3 3
-86 c2 -77 5 -87 22 -92 18 -5 20 -14 20 -86 0 -79 1 -81 24 -81 37 0 56 -10
56 -31 0 -10 3 -19 8 -19 10 0 55 31 64 44 4 6 8 72 8 147 0 142 -3 153 -45
161 -12 2 -20 11 -20 23 0 17 8 20 53 23 47 3 52 5 52 26 0 12 3 26 7 29 6 7
51 10 55 5z m413 -12 l40 -1 0 -85 c0 -72 -3 -85 -17 -88 -12 -2 -20 8 -28 37
-6 23 -21 50 -33 62 l-22 20 -3 -40 c-3 -34 -7 -42 -27 -47 -31 -8 -45 2 -45
32 0 26 -9 31 -28 12 -19 -19 -14 -47 13 -74 20 -20 29 -23 40 -14 10 9 23 6
54 -10 36 -18 41 -25 41 -55 0 -34 1 -35 39 -35 36 0 40 -3 51 -36 16 -48 -9
-118 -51 -139 -16 -9 -29 -24 -29 -34 0 -15 -11 -19 -62 -24 -35 -3 -91 -3
-126 0 l-63 6 3 85 c4 101 17 114 50 45 l23 -48 3 53 c2 42 7 52 21 52 11 0
22 -14 30 -37 13 -36 47 -83 61 -83 12 0 50 41 50 53 0 7 -11 25 -24 42 -19
23 -30 29 -58 27 -26 -2 -46 7 -88 38 -30 22 -58 46 -62 53 -4 6 -8 38 -8 69
0 50 4 62 31 93 17 19 37 35 45 35 8 0 14 10 14 26 l0 27 63 -8 c34 -4 80 -8
102 -9z"/>
<path d="M10980 8155 c0 -25 51 -75 76 -75 42 0 24 33 -38 68 -29 16 -38 18
-38 7z"/>
<path d="M12931 6174 c-7 -20 -21 -44 -31 -54 -10 -10 -34 -53 -53 -96 l-36
-79 59 -3 c33 -2 87 -2 119 0 l60 3 -35 79 c-18 44 -34 88 -34 99 0 25 -22 87
-30 87 -3 0 -12 -16 -19 -36z"/>
<path d="M12075 6371 c-28 -6 -30 -9 -33 -59 -3 -45 -1 -52 15 -52 35 0 43
-21 43 -107 l0 -82 118 -3 117 -3 0 -35 0 -35 -117 -3 -118 -3 0 -47 c0 -51
-12 -72 -42 -72 -15 0 -18 -9 -18 -59 l0 -60 46 -7 c120 -18 225 26 285 119
42 65 53 113 52 225 -3 191 -164 322 -348 283z"/>
<path d="M13755 6347 c-60 -28 -109 -110 -121 -201 l-7 -45 124 -3 c116 -3
124 -4 124 -23 0 -19 -8 -20 -128 -23 -112 -2 -128 -5 -123 -18 3 -9 6 -22 6
-30 0 -8 9 -14 20 -14 15 0 20 -7 20 -28 0 -55 32 -125 77 -168 55 -53 110
-66 179 -39 82 31 123 81 138 168 6 30 4 37 -9 37 -12 0 -15 14 -15 78 0 194
-69 306 -195 317 -40 4 -70 1 -90 -8z"/>
<path d="M9000 6084 l-33 -28 6 -99 c6 -105 17 -131 61 -139 62 -12 106 44
106 135 0 89 -26 138 -81 152 -20 5 -34 0 -59 -21z"/>
<path d="M7907 6109 c-42 -25 -79 -169 -43 -169 9 0 17 -16 21 -42 10 -60 42
-132 71 -159 47 -44 131 -24 154 36 4 11 10 46 14 78 6 49 5 57 -9 57 -8 0
-17 6 -19 13 -2 6 -10 33 -16 59 l-12 47 -87 3 c-81 3 -86 4 -89 26 -3 21 0
22 70 22 l73 1 -24 19 c-25 22 -75 26 -104 9z"/>
<path d="M10147 6104 c-25 -13 -47 -49 -47 -75 0 -5 41 -9 91 -9 89 0 90 0 84
23 -8 29 -60 77 -83 77 -9 -1 -30 -8 -45 -16z"/>
</g>
</svg>
